Coordinates
version=1
nRows=8
nColumns=63
inDegrees=yes

Units are S.I. units (second, meters, Newtons, ...)
If the header above contains a line with 'inDegrees', this indicates whether rotational values are in degrees (yes) or radians (no).

endheader
time	pelvis_tilt	pelvis_list	pelvis_rotation	pelvis_tx	pelvis_ty	pelvis_tz	hip_flexion_r	hip_adduction_r	hip_rotation_r	knee_angle_r	knee_angle_r_beta	ankle_angle_r	subtalar_angle_r	mtp_angle_r	hip_flexion_l	hip_adduction_l	hip_rotation_l	knee_angle_l	knee_angle_l_beta	ankle_angle_l	subtalar_angle_l	mtp_angle_l	L5_S1_Flex_Ext	L5_S1_Lat_Bending	L5_S1_axial_rotation	L4_L5_Flex_Ext	L4_L5_Lat_Bending	L4_L5_axial_rotation	L3_L4_Flex_Ext	L3_L4_Lat_Bending	L3_L4_axial_rotation	L2_L3_Flex_Ext	L2_L3_Lat_Bending	L2_L3_axial_rotation	L1_L2_Flex_Ext	L1_L2_Lat_Bending	L1_L2_axial_rotation	L1_T12_Flex_Ext	L1_T12_Lat_Bending	L1_T12_axial_rotation	Abs_r3	Abs_r2	Abs_r1	Abs_t1	Abs_t2	neck_flexion	neck_bending	neck_rotation	arm_flex_r	arm_add_r	arm_rot_r	elbow_flex_r	pro_sup_r	wrist_flex_r	wrist_dev_r	arm_flex_l	arm_add_l	arm_rot_l	elbow_flex_l	pro_sup_l	wrist_flex_l	wrist_dev_l
      2.93333333	     -1.67126065	     -8.93285293	     97.49711950	      0.13929546	      0.99960812	      0.26898307	     -2.61681391	     -4.26146881	    -11.47916275	      7.53525101	      0.13151494	     22.15805446	      3.06222075	      0.00000000	     -2.81767422	      2.51233146	     -2.62270432	      1.67134001	      0.02917039	     21.15143286	     13.10325581	      0.00000000	      0.12760767	      0.05589872	     -0.94062634	      0.23698021	      0.07434530	     -0.99941549	      0.20964665	      0.13591215	     -0.99941549	      0.14584281	      0.13591215	     -0.82304805	      0.11849649	      0.11398867	     -0.76425890	      0.07291502	      0.08658712	     -0.70546975	      0.91148885	      0.63233752	     -5.23148151	      0.00000000	      0.00000000	     24.44327628	     -1.81390533	    -12.84718710	    -12.62902532	    -21.80749342	    -10.68618195	     89.72148046	     88.58202004	     -6.55748288	     26.01941798	     27.70162498	    -36.35881598	     18.85500249	     69.24168442	     88.58993554	    -10.33963143	     16.18679387
      2.95000000	     -1.82648507	     -8.90096592	     97.02635346	      0.13974065	      0.99952721	      0.26805982	     -2.62452217	     -4.43098773	    -11.05459399	      7.51708106	      0.13119781	     22.31093060	      3.14315507	      0.00000000	     -2.99584945	      2.71091008	     -2.91315743	      1.57587397	      0.02750419	     21.18582572	     12.86567164	      0.00000000	      0.11358407	      0.11311581	     -0.96743474	      0.21093698	      0.15044403	     -1.02789941	      0.18660727	      0.27502978	     -1.02789941	      0.12981523	      0.27502978	     -0.84650540	      0.10547417	      0.23066576	     -0.78604073	      0.06490194	      0.17521639	     -0.72557606	      0.81131966	      1.27958866	     -5.38058181	      0.00000000	      0.00000000	     24.77106908	     -1.58467877	    -13.94591282	    -13.18620561	    -21.73185590	    -10.74053841	     91.93922883	     88.58718023	     -6.18754301	     26.15341677	     27.44646063	    -37.18258189	     18.68823303	     69.78874912	     88.56892828	    -10.31826209	     15.48289705
      2.96666667	     -1.89701311	     -8.93865747	     95.31363691	      0.14140213	      0.99930222	      0.26737866	     -2.23074449	     -4.54438464	     -8.46278334	      7.61029953	      0.13282478	     22.21201906	      1.99464786	      0.00000000	     -3.20275687	      2.93740992	     -3.86508060	      1.30454660	      0.02276863	     21.18381322	     11.98791748	      0.00000000	      0.10659542	      0.17982975	     -0.61566234	      0.19795835	      0.23917356	     -0.65414123	      0.17512561	      0.43723805	     -0.65414123	      0.12182790	      0.43723805	     -0.53870455	      0.09898450	      0.36670882	     -0.50022565	      0.06090862	      0.27855628	     -0.46174675	      0.76140040	      2.03427007	     -3.42412922	      0.00000000	      0.00000000	     25.19076048	     -1.15984980	    -16.01141815	    -14.20248673	    -21.04811802	    -12.52424188	     94.03092920	     88.62096824	     -4.16417581	     27.47876749	     28.65200775	    -36.95208554	     19.90128025	     69.11778628	     88.51898166	    -11.04259285	     12.47250712
      2.98333333	     -1.96587434	     -8.88427282	     94.06749646	      0.14244735	      0.99906454	      0.26661106	     -2.04302198	     -4.65743522	     -6.68026890	      7.69418034	      0.13428878	     22.39782921	      1.45634208	      0.00000000	     -3.45052613	      3.13341947	     -4.69282385	      1.14651443	      0.02001045	     21.24988758	     11.52059817	      0.00000000	      0.10165919	      0.24302995	     -0.41539834	      0.18879129	      0.32322983	     -0.44136074	      0.16701589	      0.59090302	     -0.44136074	      0.11618629	      0.59090302	     -0.36347355	      0.09440073	      0.49558667	     -0.33751115	      0.05808806	      0.37645339	     -0.31154876	      0.72614145	      2.74920340	     -2.31032096	      0.00000000	      0.00000000	     25.46911746	      0.48341448	    -16.76738488	    -14.85518439	    -20.93452455	    -13.07072314	     95.40626775	     88.67370395	     -3.82909247	     27.82162331	     29.81498023	    -36.80801111	     20.63982410	     68.75209020	     88.51954497	    -11.47236138	     11.12703137
      3.00000000	     -2.03611500	     -8.78362450	     92.95016598	      0.14351789	      0.99891000	      0.26610193	     -1.89711683	     -4.75684007	     -5.20818413	      7.80667348	      0.13625216	     22.57549126	      1.05564197	      0.00000000	     -3.69837109	      3.29788497	     -5.58320449	      1.04018123	      0.01815459	     21.27526199	     11.39009122	      0.00000000	      0.09101053	      0.29513013	     -0.20082775	      0.16901566	      0.39252308	     -0.21337948	      0.14952121	      0.71757941	     -0.21337948	      0.10401594	      0.71757941	     -0.17572428	      0.08451238	      0.60182937	     -0.16317255	      0.05200342	      0.45715658	     -0.15062081	      0.65007914	      3.33857109	     -1.11694370	      0.00000000	      0.00000000	     25.56248768	      2.21819221	    -17.68079804	    -15.55637831	    -20.83673453	    -13.67589355	     96.40587874	     88.74817265	     -3.87959415	     28.03047255	     31.67828716	    -36.51600452	     22.01259082	     68.20410254	     88.57106430	    -11.87439026	     10.63105489
      3.01666667	     -2.06083563	     -8.71131806	     92.60623666	      0.14369606	      0.99879219	      0.26551346	     -1.90784606	     -4.80411064	     -4.79405727	      7.84501391	      0.13692132	     22.90344060	      1.19514724	      0.00000000	     -3.86405180	      3.37619563	     -5.81807940	      0.99047270	      0.01728701	     21.22942233	     11.29615407	      0.00000000	      0.08878843	      0.34999890	     -0.21218559	      0.16488899	      0.46549854	     -0.22544719	      0.14587051	      0.85098733	     -0.22544719	      0.10147629	      0.85098733	     -0.18566239	      0.08244893	      0.71371776	     -0.17240079	      0.05073371	      0.54214830	     -0.15913919	      0.63420686	      3.95925758	     -1.18011258	      0.00000000	      0.00000000	     25.36583343	      3.51222869	    -18.11269860	    -15.91256688	    -21.17259073	    -13.52155173	     97.00928512	     88.83911840	     -3.86279949	     28.16610483	     32.63657376	    -36.44209072	     22.10676729	     68.24264437	     88.70448596	    -11.86081671	     10.64038625
      3.03333333	     -2.19064054	     -8.64623021	     91.23901282	      0.14573309	      0.99876259	      0.26593152	     -1.55978664	     -4.97382258	     -3.61439360	      8.11515056	      0.14163610	     23.13061848	      1.44167143	      0.00000000	     -3.99793719	      3.58579108	     -6.98195567	      0.91441611	      0.01595957	     21.16371987	     11.09432433	      0.00000000	      0.05735649	      0.37540435	      0.09906638	      0.10651673	      0.49928779	      0.10525803	      0.09423097	      0.91275814	      0.10525803	      0.06555273	      0.91275814	      0.08668308	      0.05326123	      0.76552455	      0.08049143	      0.03277350	      0.58150134	      0.07429978	      0.40969166	      4.24664911	      0.55097748	      0.00000000	      0.00000000	     25.36279898	      4.63550843	    -18.91152839	    -16.57124377	    -21.12938985	    -14.08358045	     97.69954106	     88.88599100	     -4.72994028	     28.91455700	     35.09958627	    -36.36897301	     24.36873800	     67.86354453	     88.82814124	    -11.83681304	     11.10143116
      3.05000000	     -2.27881371	     -8.64793880	     90.54311033	      0.14675221	      0.99857033	      0.26585497	     -1.33503728	     -5.06261548	     -2.65185946	      8.31039070	      0.14504368	     23.28039242	      1.12852685	      0.00000000	     -4.05421746	      3.71076736	     -8.13777869	      0.87302161	      0.01523710	     21.22248719	     11.78005187	      0.00000000	      0.04020143	      0.40450848	      0.32948425	      0.07465808	      0.53799627	      0.35007701	      0.06604693	      0.98352191	      0.35007701	      0.04594621	      0.98352191	      0.28829871	      0.03733105	      0.82487368	      0.26770595	      0.02297110	      0.62658363	      0.24711318	      0.28715479	      4.57588078	      1.83249253	      0.00000000	      0.00000000	     25.05266500	      3.95481509	    -20.42671258	    -17.74818836	    -21.19952400	    -14.97331599	     98.58675304	     88.95764143	     -5.11748034	     29.12484905	     36.98864222	    -36.16950938	     26.37884811	     67.92757006	     88.94629907	    -12.40092844	     11.03408088
